<svg width="48" height="48" viewBox="0 0 48 48" fill="none" xmlns="http://www.w3.org/2000/svg">
<path d="M23.9999 46.3636C11.6312 46.3636 1.63623 36.3965 1.63623 24.0623C1.63623 18.082 4.01003 12.4756 8.13294 8.23954C12.3808 4.00353 18.0029 1.63635 23.9999 1.63635C36.3686 1.63635 46.3636 11.6034 46.3636 23.9377C46.3636 36.272 36.3686 46.239 23.9999 46.3636Z" fill="url(#paint0_linear)"/>
<mask id="mask0" mask-type="alpha" maskUnits="userSpaceOnUse" x="1" y="1" width="46" height="46">
<path d="M23.9999 46.3636C11.6312 46.3636 1.63623 36.3965 1.63623 24.0623C1.63623 18.082 4.01003 12.4756 8.13294 8.23954C12.3808 4.00353 18.0029 1.63635 23.9999 1.63635C36.3687 1.63635 46.3636 11.6034 46.3636 23.9377C46.3636 36.272 36.3687 46.239 23.9999 46.3636Z" fill="url(#paint1_linear)"/>
</mask>
<g mask="url(#mask0)">
<path d="M49.2826 19.5249L-0.92041 19.5961L-0.907956 28.4761L49.295 28.4049L49.2826 19.5249Z" fill="#121212"/>
<path d="M49.2826 37.4138L-0.92041 37.485L-0.907652 46.5819L49.2953 46.5107L49.2826 37.4138Z" fill="#121212"/>
<path d="M49.2814 0.830813L-0.921631 0.902832L-0.908205 10.5859L49.2948 10.5138L49.2814 0.830813Z" fill="#121212"/>
</g>
<defs>
<linearGradient id="paint0_linear" x1="1.63623" y1="24.0048" x2="46.3732" y2="24.0048" gradientUnits="userSpaceOnUse">
<stop stop-color="#FF9900"/>
<stop offset="0.765625" stop-color="#FFCD00"/>
</linearGradient>
<linearGradient id="paint1_linear" x1="1.61848" y1="24.0252" x2="46.3738" y2="23.9619" gradientUnits="userSpaceOnUse">
<stop stop-color="#E8990C"/>
<stop offset="0.3903" stop-color="#F4B40D"/>
<stop offset="0.7418" stop-color="#FCC60D"/>
<stop offset="1" stop-color="#FFCC0D"/>
</linearGradient>
</defs>
</svg>
