<svg width="36" height="36" viewBox="0 0 36 36" fill="none" xmlns="http://www.w3.org/2000/svg">
<path opacity="0.2" d="M36 18.0087C36 27.9247 27.9208 36 18 36C8.07915 36 0 27.9247 0 18.0087C0 8.07525 8.07915 0 18 0C27.9208 0 36 8.07525 36 18.0087Z" fill="#F8104D"/>
<path d="M25.2 18.0088C25.2 18.4637 25.0568 18.9204 24.7704 19.2861C24.7167 19.3578 24.4662 19.6535 24.2693 19.846L24.1619 19.951C22.6585 21.5449 18.9179 23.942 17.0207 24.7101C17.0207 24.7276 15.8932 25.1843 15.3562 25.2001H15.2846C14.4613 25.2001 13.6917 24.7469 13.298 24.012C13.0832 23.6078 12.8863 22.4355 12.8684 22.4198C12.7074 21.3682 12.6 19.7585 12.6 17.9913C12.6 16.1384 12.7074 14.4569 12.9042 13.4246C12.9042 13.4071 13.1011 12.4623 13.2264 12.1473C13.4233 11.6941 13.7812 11.3075 14.2287 11.0625C14.5866 10.8893 14.9625 10.8 15.3562 10.8C15.7679 10.8193 16.5375 11.08 16.8417 11.2025C18.8463 11.9723 22.6764 14.4919 24.144 16.0316C24.3946 16.2766 24.663 16.5758 24.7346 16.644C25.0389 17.029 25.2 17.5014 25.2 18.0088Z" fill="white"/>
</svg>
