<svg width="28" height="28" viewBox="0 0 28 28" fill="none" xmlns="http://www.w3.org/2000/svg">
<path d="M18.5082 9.24068C18.3122 9.26868 18.1722 9.38068 18.0322 9.46468C15.2322 11.2287 12.4322 12.9927 9.63223 14.7567C9.40823 14.8967 9.32423 15.0367 9.43623 15.3167C9.82823 16.4927 10.1922 17.6407 10.5842 18.8167C10.6402 19.0127 10.7242 19.2087 10.7802 19.4327C10.8642 19.3487 10.8642 19.2647 10.8642 19.1807C10.9482 18.4247 11.0322 17.6407 11.0602 16.8847C11.0882 16.5487 11.2282 16.2967 11.4802 16.0727C13.8322 13.9447 16.1842 11.8447 18.5362 9.71668C18.5922 9.66068 18.6482 9.63268 18.6762 9.57668C18.7322 9.49268 18.8442 9.40868 18.7882 9.29668C18.7602 9.21268 18.6202 9.21268 18.5082 9.24068Z" fill="#6C60A9"/>
<path d="M14 0C6.272 0 0 6.272 0 14C0 21.728 6.272 28 14 28C21.728 28 28 21.728 28 14C28 6.272 21.728 0 14 0ZM21.644 9.268C20.86 13.02 20.048 16.744 19.264 20.496C19.04 21.588 18.452 21.812 17.556 21.168C16.324 20.272 15.092 19.348 13.86 18.452C13.664 18.312 13.58 18.34 13.412 18.48C12.824 19.068 12.236 19.628 11.648 20.188C11.452 20.384 11.256 20.524 10.976 20.58C10.584 20.636 10.416 20.552 10.276 20.16C9.8 18.676 9.324 17.192 8.848 15.68C8.736 15.344 8.568 15.176 8.232 15.064C7.112 14.728 6.02 14.392 4.928 14.028C4.704 13.972 4.48 13.888 4.284 13.748C4.032 13.58 4.004 13.328 4.228 13.104C4.452 12.88 4.732 12.74 5.04 12.628C10.276 10.64 15.484 8.624 20.692 6.636C20.776 6.608 20.86 6.58 20.944 6.552C21.532 6.384 21.98 6.72 21.98 7.392C21.952 7.98 21.784 8.624 21.644 9.268Z" fill="#6C60A9"/>
</svg>
