<svg width="32" height="32" viewBox="0 0 32 32" fill="none" xmlns="http://www.w3.org/2000/svg">
<path opacity="0.2" d="M0.25 16C0.25 7.30151 7.30151 0.25 16 0.25C24.6985 0.25 31.75 7.30151 31.75 16C31.75 24.6985 24.6985 31.75 16 31.75C7.30151 31.75 0.25 24.6985 0.25 16Z" stroke="#E8E8E8" stroke-width="0.5"/>
<path opacity="0.2" fill-rule="evenodd" clip-rule="evenodd" d="M22.6677 10.4996C23.4021 10.7011 23.9804 11.2949 24.1766 12.0489C24.5333 13.4154 24.5333 16.2667 24.5333 16.2667C24.5333 16.2667 24.5333 19.1179 24.1766 20.4846C23.9804 21.2386 23.4021 21.8323 22.6677 22.0339C21.3369 22.4001 16 22.4001 16 22.4001C16 22.4001 10.663 22.4001 9.33218 22.0339C8.59782 21.8323 8.01949 21.2386 7.82322 20.4846C7.46667 19.1179 7.46667 16.2667 7.46667 16.2667C7.46667 16.2667 7.46667 13.4154 7.82322 12.0489C8.01949 11.2949 8.59782 10.7011 9.33218 10.4996C10.663 10.1334 16 10.1334 16 10.1334C16 10.1334 21.3369 10.1334 22.6677 10.4996ZM14.4001 13.8665V19.1998L18.6667 16.5332L14.4001 13.8665Z" fill="#CACACA"/>
</svg>
